<svg width="21" height="8" viewBox="0 0 21 8" fill="none" xmlns="http://www.w3.org/2000/svg">
<path d="M20.5 4.18164C20.7761 4.18164 21 3.95778 21 3.68164C21 3.4055 20.7761 3.18164 20.5 3.18164V3.68164V4.18164ZM0.146447 3.32809C-0.0488155 3.52335 -0.0488155 3.83993 0.146447 4.03519L3.32843 7.21717C3.52369 7.41244 3.84027 7.41244 4.03553 7.21717C4.2308 7.02191 4.2308 6.70533 4.03553 6.51007L1.20711 3.68164L4.03553 0.853214C4.2308 0.657951 4.2308 0.341369 4.03553 0.146107C3.84027 -0.0491555 3.52369 -0.0491555 3.32843 0.146107L0.146447 3.32809ZM20.5 3.68164V3.18164H0.5V3.68164V4.18164H20.5V3.68164Z" fill="#10181F"/>
</svg>
