<svg width="18" height="18" viewBox="0 0 18 18" fill="none" xmlns="http://www.w3.org/2000/svg">
<path d="M13.9501 5.2802L13.2526 4.21521C13.0501 3.87021 12.6676 3.6527 12.2026 3.6377C11.7826 3.6377 11.3851 3.8402 11.1676 4.1552L10.8901 4.55272L9.60761 2.12273C9.21011 1.44773 8.15262 1.29021 7.55262 1.91271L4.21511 5.6552C3.02261 6.9527 2.37012 8.59523 2.37012 10.2827C2.37012 10.5752 2.41511 10.9277 2.52761 11.4452C2.55011 11.5352 2.57262 11.6327 2.60262 11.7377L2.64011 11.9102C3.33011 14.4677 5.79012 16.3127 8.79762 16.5002H8.84262C11.9251 16.5002 14.6701 14.5802 15.3526 11.9402C15.3901 11.8352 15.4126 11.7302 15.4426 11.6252C15.4576 11.5652 15.4726 11.5052 15.5026 11.3927C15.5926 10.9427 15.6301 10.6052 15.6301 10.3352V10.2377C15.6301 8.49773 14.7676 6.5327 13.9501 5.2802ZM11.0026 13.4402C10.9876 13.4927 10.9726 13.5452 10.9576 13.6052L10.9426 13.6727C10.7926 14.2352 10.3576 14.7077 9.75011 14.9702C9.46511 15.0977 9.16511 15.1652 8.85011 15.1877H8.82012C8.58762 15.1877 8.32512 15.1052 8.01762 14.9702C7.41762 14.7077 6.9826 14.2352 6.8101 13.6052C6.7951 13.5452 6.78762 13.4852 6.78012 13.4777C6.75012 13.3202 6.72762 13.2077 6.72762 13.1327C6.72762 12.5552 6.9601 11.9927 7.3726 11.5427L8.88762 9.84772L10.4026 11.5502C10.8151 11.9927 11.0401 12.5552 11.0401 13.1327C11.0401 13.2077 11.0251 13.3277 11.0026 13.4402Z" fill="#10181F"/>
</svg>
