<svg width="18" height="18" viewBox="0 0 18 18" fill="none" xmlns="http://www.w3.org/2000/svg">
<path d="M14.5952 8.66218L9.52522 16.0497C9.33022 16.3422 9.01523 16.4997 8.67773 16.4997C8.57273 16.4997 8.46772 16.4847 8.36272 16.4547C7.93522 16.3197 7.64273 15.9372 7.64273 15.4947V11.2647C7.64273 11.0922 7.47772 10.9422 7.27522 10.9422L4.25272 10.9047C3.87022 10.9047 3.51773 10.6872 3.34523 10.3572C3.18023 10.0347 3.20273 9.6447 3.41273 9.3372L8.47523 1.9497C8.73023 1.5747 9.20273 1.40969 9.63773 1.54469C10.0652 1.67969 10.3577 2.06219 10.3577 2.50469V6.7347C10.3577 6.9072 10.5227 7.05719 10.7252 7.05719L13.7477 7.09468C14.1302 7.09468 14.4827 7.30469 14.6552 7.64219C14.8202 7.96469 14.7977 8.35468 14.5952 8.66218Z" fill="#10181F"/>
</svg>
