<svg width="18" height="18" viewBox="0 0 18 18" fill="none" xmlns="http://www.w3.org/2000/svg">
<path d="M5.145 8.99219H2.0625C1.755 8.99219 1.5 9.24719 1.5 9.55469V14.0097C1.5 14.3172 1.755 14.5722 2.0625 14.5722H5.145C5.4525 14.5722 5.7075 14.3172 5.7075 14.0097V9.55469C5.7075 9.24719 5.46 8.99219 5.145 8.99219Z" fill="#10181F"/>
<path d="M10.5446 6.21094H7.53711C7.22961 6.21094 6.97461 6.46594 6.97461 6.77344V14.0109C6.97461 14.3184 7.22961 14.5734 7.53711 14.5734H10.5446C10.8521 14.5734 11.1071 14.3184 11.1071 14.0109V6.77344C11.1071 6.46594 10.8521 6.21094 10.5446 6.21094Z" fill="#10181F"/>
<path d="M15.938 3.42773H12.8555C12.548 3.42773 12.293 3.68273 12.293 3.99023V14.0102C12.293 14.3177 12.548 14.5727 12.8555 14.5727H15.938C16.2455 14.5727 16.5005 14.3177 16.5005 14.0102V3.99023C16.5005 3.68273 16.2455 3.42773 15.938 3.42773Z" fill="#10181F"/>
</svg>
