<svg width="36" height="36" viewBox="0 0 36 36" fill="none" xmlns="http://www.w3.org/2000/svg">
<rect width="36" height="36" rx="18" fill="url(#paint0_linear_383_2108)" fill-opacity="0.1"/>
<path d="M27.75 14.7935C27.75 16.178 27.2137 17.4747 26.2387 18.4497L18.585 26.1035C18.546 26.1425 18.4388 26.2302 18.39 26.2595C18.273 26.3375 18.1365 26.3765 18 26.3765C17.8635 26.3765 17.7172 26.3375 17.6002 26.2595C17.5417 26.2205 17.493 26.1815 17.4345 26.123L9.771 18.4497C8.78625 17.4747 8.25 16.178 8.25 14.7935C8.25 13.409 8.78625 12.1122 9.771 11.1372C11.7892 9.12873 15.0652 9.12873 17.0835 11.1372L18 12.0635L18.9262 11.1372C20.9445 9.12873 24.2205 9.12873 26.229 11.1372C27.2138 12.1122 27.75 13.409 27.75 14.7935Z" fill="url(#paint1_linear_383_2108)"/>
<defs>
<linearGradient id="paint0_linear_383_2108" x1="8.1" y1="7.2" x2="27.9" y2="31.95" gradientUnits="userSpaceOnUse">
<stop stop-color="#DA0856"/>
<stop offset="1" stop-color="#FB3E3B"/>
</linearGradient>
<linearGradient id="paint1_linear_383_2108" x1="10.0606" y1="12.9868" x2="22.5963" y2="22.5975" gradientUnits="userSpaceOnUse">
<stop stop-color="#DA0755"/>
<stop offset="1" stop-color="#FB3E3A"/>
</linearGradient>
</defs>
</svg>
