<svg width="24" height="24" viewBox="0 0 24 24" fill="none" xmlns="http://www.w3.org/2000/svg">
<path d="M17.8997 10.3095V7.91953C17.8997 4.66953 15.2498 2.01953 11.9998 2.01953C8.74976 2.01953 6.09976 4.66953 6.09976 7.91953V10.3095C4.33976 10.6795 3.00977 12.2495 3.00977 14.1195V18.1095C3.00977 20.2695 4.75977 22.0195 6.91977 22.0195H17.0898C19.2398 22.0195 20.9897 20.2695 20.9897 18.1095V14.1195C20.9897 12.2495 19.6597 10.6795 17.8997 10.3095ZM12.7498 16.6995V18.1795C12.7498 18.5895 12.4098 18.9295 11.9998 18.9295C11.5898 18.9295 11.2498 18.5895 11.2498 18.1795V16.6995C10.6398 16.4095 10.2198 15.7995 10.2198 15.0895C10.2198 14.1095 11.0198 13.3095 11.9998 13.3095C12.9798 13.3095 13.7798 14.1095 13.7798 15.0895C13.7798 15.7995 13.3598 16.4095 12.7498 16.6995ZM7.59976 10.2195V7.91953C7.59976 5.48953 9.56976 3.51953 11.9998 3.51953C14.4298 3.51953 16.3997 5.48953 16.3997 7.91953V10.2195H7.59976Z" fill="#088E44"/>
</svg>
