<svg width="24" height="24" viewBox="0 0 24 24" fill="none" xmlns="http://www.w3.org/2000/svg">
<path d="M10.311 4.0625C11.0111 2.64578 12.9828 2.64589 13.6831 4.0625L21.7846 18.1367C22.4418 19.4502 21.5135 20.9998 20.0991 21H3.89595C2.48143 21 1.56654 19.4355 2.20943 18.1367L10.311 4.0625ZM12.0004 15.5801C11.5862 15.5801 11.2504 15.9159 11.2504 16.3301C11.2505 16.7443 11.5863 17.0801 12.0004 17.0801C12.4145 17.0799 12.7504 16.7442 12.7504 16.3301C12.7504 15.916 12.4145 15.5803 12.0004 15.5801ZM12.0004 9.16992C11.5863 9.16992 11.2505 9.50576 11.2504 9.91992V13.5801C11.2505 13.9943 11.5862 14.3301 12.0004 14.3301C12.4145 14.3299 12.7504 13.9942 12.7504 13.5801V9.91992C12.7504 9.50587 12.4145 9.17009 12.0004 9.16992Z" fill="#FCB640"/>
</svg>
