<svg width="24" height="24" viewBox="0 0 24 24" fill="none" xmlns="http://www.w3.org/2000/svg">
<path d="M10.3107 4.0625C11.0109 2.64578 12.9826 2.64589 13.6828 4.0625L21.7844 18.1367C22.4416 19.4502 21.5132 20.9998 20.0988 21H3.8957C2.48119 21 1.5663 19.4355 2.20918 18.1367L10.3107 4.0625ZM12.0002 15.5801C11.586 15.5801 11.2502 15.9159 11.2502 16.3301C11.2502 16.7443 11.586 17.0801 12.0002 17.0801C12.4142 17.0799 12.7502 16.7442 12.7502 16.3301C12.7502 15.916 12.4143 15.5803 12.0002 15.5801ZM12.0002 9.16992C11.586 9.16992 11.2503 9.50576 11.2502 9.91992V13.5801C11.2502 13.9943 11.586 14.3301 12.0002 14.3301C12.4142 14.3299 12.7502 13.9942 12.7502 13.5801V9.91992C12.7501 9.50587 12.4142 9.17009 12.0002 9.16992Z" fill="#FCB640"/>
</svg>
