<svg width="18" height="18" viewBox="0 0 18 18" fill="none" xmlns="http://www.w3.org/2000/svg">
<path d="M9.95728 1.87359C9.66824 1.37547 8.94891 1.37547 8.65988 1.87359L6.62434 5.38157C6.48156 5.62763 6.23477 5.79555 5.95347 5.83803L2.13874 6.4142C1.49803 6.51098 1.27328 7.31993 1.77226 7.73333L4.61408 10.0877C4.87714 10.3057 5.00082 10.6495 4.93692 10.985L4.19355 14.8889C4.07603 15.506 4.72388 15.9855 5.27974 15.6928L8.87179 13.8015C9.14519 13.6575 9.47196 13.6575 9.74536 13.8015L13.3374 15.6928C13.8933 15.9855 14.5411 15.506 14.4236 14.8889L13.6802 10.985C13.6163 10.6495 13.74 10.3057 14.0031 10.0877L16.8449 7.73333C17.3439 7.31993 17.1191 6.51098 16.4784 6.4142L12.6637 5.83804C12.3824 5.79555 12.1356 5.62763 11.9928 5.38157L9.95728 1.87359Z" fill="#10181F"/>
</svg>
